<?xml version="1.0" encoding="utf-8"?>
<!-- Generator: Adobe Illustrator 16.0.0, SVG Export Plug-In . SVG Version: 6.00 Build 0)  -->
<!DOCTYPE svg PUBLIC "-//W3C//DTD SVG 1.1//EN" "http://www.w3.org/Graphics/SVG/1.1/DTD/svg11.dtd">
<svg version="1.1" id="Layer_1" xmlns="http://www.w3.org/2000/svg" xmlns:xlink="http://www.w3.org/1999/xlink" x="0px" y="0px"
	 width="198.743px" height="49.947px" viewBox="0 0 198.743 49.947" enable-background="new 0 0 198.743 49.947"
	 xml:space="preserve">
<g>
	<g>
		<path fill="#F4F4F4" d="M69.662,10.165c-0.249-0.248-0.701-0.585-1.357-1.011c-0.657-0.426-1.455-0.842-2.395-1.251
			c-0.941-0.407-1.961-0.753-3.061-1.038c-1.1-0.284-2.218-0.425-3.353-0.425c-2.022,0-3.531,0.372-4.524,1.117
			c-0.993,0.745-1.49,1.792-1.49,3.14c0,0.781,0.187,1.428,0.558,1.942c0.373,0.515,0.914,0.967,1.624,1.357
			c0.709,0.391,1.605,0.746,2.688,1.065c1.082,0.319,2.333,0.657,3.752,1.011c1.844,0.498,3.521,1.029,5.029,1.597
			c1.508,0.568,2.785,1.277,3.832,2.129c1.046,0.852,1.854,1.872,2.421,3.06c0.567,1.189,0.852,2.653,0.852,4.39
			c0,2.022-0.382,3.753-1.145,5.188c-0.764,1.438-1.783,2.601-3.06,3.486c-1.277,0.887-2.768,1.535-4.471,1.942
			s-3.477,0.612-5.322,0.612c-2.838,0-5.641-0.427-8.409-1.277c-2.767-0.852-5.251-2.059-7.45-3.619l3.246-6.334
			c0.319,0.32,0.896,0.738,1.73,1.252c0.833,0.514,1.817,1.029,2.953,1.543c1.135,0.516,2.395,0.949,3.779,1.305
			c1.384,0.354,2.803,0.531,4.258,0.531c4.045,0,6.067-1.295,6.067-3.885c0-0.852-0.231-1.561-0.692-2.129
			c-0.461-0.567-1.118-1.064-1.969-1.49c-0.852-0.425-1.881-0.815-3.087-1.17c-1.207-0.354-2.555-0.727-4.045-1.118
			c-1.81-0.497-3.379-1.038-4.71-1.623c-1.331-0.586-2.439-1.269-3.326-2.049c-0.888-0.78-1.552-1.703-1.996-2.768
			c-0.444-1.064-0.666-2.323-0.666-3.778c0-1.916,0.355-3.619,1.064-5.109c0.709-1.49,1.694-2.732,2.954-3.725
			c1.259-0.993,2.723-1.747,4.39-2.262C56.002,0.258,57.794,0,59.71,0c2.661,0,5.109,0.417,7.344,1.251
			c2.235,0.834,4.186,1.818,5.854,2.954L69.662,10.165z"/>
		<path fill="#F4F4F4" d="M75.904,38.052V0.266h16.019c1.738,0,3.344,0.364,4.816,1.091c1.472,0.728,2.741,1.686,3.805,2.873
			c1.064,1.189,1.897,2.538,2.502,4.045c0.603,1.509,0.904,3.025,0.904,4.551c0,1.597-0.285,3.149-0.852,4.657
			c-0.568,1.508-1.366,2.847-2.395,4.018c-1.03,1.171-2.271,2.112-3.726,2.821c-1.456,0.71-3.052,1.063-4.79,1.063h-8.94v12.667
			L75.904,38.052L75.904,38.052z M83.249,18.946h8.514c1.348,0,2.475-0.55,3.38-1.65c0.904-1.099,1.357-2.589,1.357-4.47
			c0-0.958-0.142-1.818-0.426-2.582c-0.284-0.763-0.657-1.41-1.118-1.942c-0.461-0.532-1.002-0.931-1.623-1.197
			s-1.25-0.399-1.889-0.399h-8.195V18.946z"/>
		<path fill="#F4F4F4" d="M97.644,38.052l14.901-37.786h5.961l14.85,37.786h-7.771c0,0-0.846-6.623-4.498-10.244
			c-3.534-3.506-10.987-4.338-10.987-4.338l-4.685,14.583L97.644,38.052L97.644,38.052z M115.525,8.196l-5.428,15.273h10.696
			L115.525,8.196z"/>
		<path fill="#F4F4F4" d="M134.316,38.052V0.266h16.711c1.738,0,3.345,0.364,4.815,1.091c1.474,0.728,2.742,1.686,3.806,2.873
			c1.065,1.189,1.897,2.538,2.502,4.045c0.604,1.509,0.904,3.025,0.904,4.551c0,2.448-0.611,4.675-1.837,6.679
			c-1.223,2.005-2.883,3.451-4.975,4.337l8.887,14.21h-8.303l-7.93-12.667h-7.236v12.667H134.316z M141.661,18.946h9.207
			c0.674,0,1.305-0.16,1.891-0.479c0.586-0.319,1.091-0.753,1.517-1.304c0.425-0.55,0.763-1.198,1.011-1.943
			c0.248-0.745,0.373-1.543,0.373-2.395c0-0.886-0.143-1.703-0.426-2.448c-0.285-0.745-0.666-1.392-1.145-1.943
			c-0.479-0.55-1.029-0.975-1.65-1.277c-0.62-0.301-1.25-0.453-1.889-0.453h-8.889V18.946z"/>
		<path fill="#F4F4F4" d="M165.984,38.052V0.319h7.345v18.415l16.338-18.468h7.61L182.802,17.03l15.38,21.021h-7.77l-12.027-16.871
			l-5.057,5.482v11.389H165.984z"/>
	</g>
	<path fill="#71CC8D" d="M37.63,19.358c0.003,2.108-0.348,4.227-1.056,6.247c-0.71,2.02-1.763,3.951-3.151,5.687
		c-1.394,1.729-3.117,3.271-5.14,4.469c-1.012,0.597-2.088,1.128-3.23,1.534c-1.139,0.411-2.337,0.71-3.565,0.893
		c-2.454,0.358-5.078,0.252-7.62-0.438c-1.265-0.354-2.521-0.82-3.703-1.453c-1.184-0.626-2.33-1.364-3.364-2.252
		c-2.096-1.744-3.832-3.985-5.008-6.526C0.609,24.98-0.004,22.154,0,19.356c-0.002-2.798,0.621-5.623,1.808-8.154
		c0.292-0.635,0.625-1.25,0.987-1.843c0.359-0.595,0.752-1.167,1.176-1.713c0.211-0.274,0.428-0.542,0.651-0.804
		c0.226-0.259,0.461-0.511,0.7-0.758C5.8,5.593,6.3,5.127,6.82,4.688c2.085-1.751,4.527-3.005,7.06-3.695
		c1.266-0.349,2.561-0.538,3.837-0.611c0.639-0.034,1.275-0.036,1.905-0.007c0.315,0.014,0.628,0.036,0.939,0.066l0.465,0.051
		l0.48,0.062L21.7,0.589l0.244,0.038c0.156,0.026,0.305,0.054,0.457,0.084c0.303,0.059,0.603,0.126,0.9,0.201
		c0.594,0.148,1.178,0.325,1.748,0.529c1.14,0.404,2.215,0.938,3.227,1.527c1.015,0.589,1.941,1.293,2.806,2.029
		c0.865,0.743,1.628,1.577,2.335,2.429c1.389,1.734,2.446,3.662,3.156,5.681c0.709,2.021,1.061,4.136,1.058,6.249L37.63,19.358
		L37.63,19.358z M37,19.356c-0.006-2.032-0.412-4.06-1.198-5.929c-0.783-1.871-1.94-3.583-3.377-5.008
		c-1.438-1.427-3.167-2.552-5.037-3.308C25.516,4.354,23.502,3.978,21.484,4c-2.006,0.018-4.012,0.432-5.853,1.219
		c-1.844,0.783-3.521,1.939-4.924,3.358C9.3,9.993,8.175,11.686,7.419,13.53c-0.757,1.843-1.141,3.835-1.132,5.827
		c-0.006,1.991,0.375,3.983,1.133,5.826c0.755,1.843,1.881,3.536,3.287,4.952c1.405,1.418,3.08,2.575,4.924,3.357
		c1.842,0.786,3.843,1.2,5.855,1.219c2.011,0.021,4.029-0.354,5.9-1.11c1.87-0.756,3.598-1.881,5.037-3.308
		c1.438-1.426,2.595-3.137,3.378-5.008c0.786-1.871,1.192-3.895,1.198-5.931L37,19.356L37,19.356z"/>
	<path fill="#71CC8D" d="M6.963,17.525c-0.003-1.45,0.239-2.906,0.726-4.295c0.488-1.388,1.211-2.716,2.167-3.909
		c0.958-1.188,2.142-2.249,3.533-3.073c0.695-0.409,1.436-0.775,2.221-1.054c0.784-0.283,1.607-0.489,2.451-0.614
		c1.687-0.247,3.492-0.174,5.239,0.301c0.87,0.243,1.733,0.564,2.545,1c0.815,0.43,1.603,0.938,2.313,1.548
		c1.44,1.199,2.634,2.741,3.443,4.487c0.814,1.743,1.235,3.686,1.232,5.61c0.001,1.924-0.427,3.866-1.243,5.605
		c-0.201,0.437-0.429,0.859-0.678,1.267c-0.247,0.409-0.518,0.803-0.809,1.178c-0.145,0.188-0.294,0.373-0.448,0.552
		c-0.155,0.18-0.317,0.354-0.48,0.521c-0.329,0.338-0.672,0.66-1.03,0.961c-1.434,1.203-3.113,2.065-4.854,2.541
		c-0.871,0.24-1.761,0.369-2.638,0.42c-0.44,0.022-0.877,0.025-1.31,0.005c-0.216-0.011-0.432-0.025-0.646-0.046l-0.32-0.035
		l-0.331-0.042l-0.133-0.024l-0.167-0.025c-0.107-0.02-0.21-0.037-0.314-0.059c-0.208-0.041-0.415-0.088-0.619-0.138
		c-0.409-0.103-0.81-0.224-1.202-0.364c-0.784-0.277-1.522-0.645-2.218-1.051c-0.698-0.404-1.334-0.889-1.929-1.395
		c-0.594-0.512-1.119-1.084-1.605-1.67c-0.955-1.192-1.681-2.519-2.169-3.905C7.202,20.433,6.96,18.978,6.963,17.525L6.963,17.525
		L6.963,17.525z M7.395,17.527c0.005,1.397,0.284,2.791,0.824,4.077c0.538,1.286,1.333,2.462,2.322,3.443
		c0.988,0.981,2.177,1.755,3.463,2.274c1.287,0.521,2.671,0.777,4.058,0.765c1.379-0.013,2.758-0.298,4.024-0.839
		c1.268-0.538,2.42-1.333,3.385-2.309c0.967-0.974,1.741-2.138,2.26-3.405c0.521-1.267,0.785-2.637,0.778-4.006
		c0.004-1.369-0.258-2.738-0.779-4.006c-0.519-1.267-1.293-2.431-2.26-3.405c-0.966-0.974-2.117-1.77-3.386-2.308
		c-1.266-0.542-2.643-0.826-4.025-0.838c-1.382-0.015-2.77,0.244-4.056,0.764s-2.474,1.293-3.463,2.274
		c-0.989,0.98-1.784,2.157-2.322,3.442C7.678,14.737,7.399,16.129,7.395,17.527L7.395,17.527L7.395,17.527z"/>
	<g>
		<path fill="#C3CCD5" d="M133.454,47.776c-0.406,0-0.771-0.094-1.095-0.284c-0.323-0.189-0.579-0.444-0.767-0.765v0.949h-0.969
			v-7.3h1.101v3.06c0.206-0.332,0.465-0.596,0.774-0.789c0.309-0.192,0.674-0.291,1.094-0.291c0.348,0,0.664,0.076,0.951,0.226
			c0.285,0.149,0.531,0.351,0.734,0.601s0.359,0.541,0.471,0.87c0.11,0.33,0.164,0.675,0.164,1.035c0,0.373-0.062,0.724-0.188,1.05
			c-0.127,0.327-0.302,0.612-0.521,0.854c-0.221,0.243-0.479,0.436-0.781,0.575C134.124,47.707,133.801,47.776,133.454,47.776z
			 M133.165,46.837c0.239,0,0.459-0.049,0.66-0.145c0.198-0.099,0.37-0.227,0.514-0.387c0.145-0.158,0.256-0.345,0.336-0.555
			s0.119-0.432,0.119-0.665s-0.037-0.459-0.114-0.676c-0.077-0.216-0.183-0.406-0.319-0.569c-0.136-0.163-0.301-0.295-0.49-0.396
			c-0.189-0.1-0.397-0.148-0.625-0.148c-0.174,0-0.336,0.03-0.484,0.09c-0.149,0.061-0.29,0.143-0.42,0.245
			c-0.131,0.103-0.248,0.224-0.352,0.359s-0.191,0.282-0.264,0.436v1.38c0.039,0.153,0.109,0.293,0.209,0.416
			c0.1,0.122,0.219,0.231,0.355,0.324c0.135,0.094,0.28,0.165,0.436,0.215C132.877,46.812,133.023,46.837,133.165,46.837z"/>
		<path fill="#C3CCD5" d="M136.883,48.917c0.094,0.02,0.182,0.033,0.262,0.039c0.08,0.008,0.152,0.011,0.219,0.011
			c0.088,0,0.164-0.011,0.23-0.03c0.066-0.019,0.132-0.07,0.195-0.153c0.062-0.084,0.133-0.214,0.209-0.386
			c0.078-0.174,0.17-0.414,0.274-0.721l-2.14-5.229h1.13l1.62,4.26l1.439-4.26h1.039l-2.389,6.44
			c-0.135,0.359-0.334,0.625-0.602,0.799c-0.267,0.174-0.576,0.261-0.931,0.261c-0.192,0-0.379-0.026-0.56-0.08v-0.95H136.883z"/>
		<path fill="#C3CCD5" d="M144.523,47.677v-7.1h2.979c0.32,0,0.615,0.066,0.886,0.199c0.271,0.134,0.502,0.309,0.694,0.524
			c0.193,0.216,0.346,0.464,0.455,0.74s0.164,0.56,0.164,0.845c0,0.301-0.051,0.59-0.154,0.865
			c-0.103,0.275-0.248,0.523-0.436,0.739c-0.188,0.217-0.41,0.391-0.675,0.521c-0.263,0.131-0.556,0.194-0.875,0.194h-1.92v2.471
			L144.523,47.677L144.523,47.677z M145.644,44.217h1.851c0.16,0,0.305-0.032,0.436-0.101c0.13-0.066,0.24-0.16,0.335-0.279
			c0.094-0.12,0.166-0.26,0.22-0.42c0.055-0.16,0.08-0.337,0.08-0.529c0-0.201-0.029-0.381-0.09-0.541s-0.145-0.299-0.25-0.414
			c-0.105-0.117-0.229-0.207-0.365-0.271c-0.137-0.062-0.277-0.094-0.425-0.094h-1.79L145.644,44.217L145.644,44.217z"/>
		<path fill="#C3CCD5" d="M153.514,43.397c-0.428,0.014-0.805,0.111-1.131,0.295s-0.562,0.445-0.709,0.785v3.199h-1.1v-5.229h1.02
			v1.17c0.187-0.359,0.425-0.652,0.715-0.88c0.29-0.227,0.598-0.34,0.925-0.34c0.067,0,0.122,0,0.165,0s0.082,0.004,0.115,0.011
			V43.397L153.514,43.397z"/>
		<path fill="#C3CCD5" d="M154.314,41.587v-1.21h1.101v1.21H154.314z M154.314,47.677v-5.229h1.101v5.229H154.314z"/>
		<path fill="#C3CCD5" d="M164.713,47.677h-1.101v-2.93c0-0.486-0.082-0.844-0.243-1.07c-0.164-0.227-0.396-0.34-0.695-0.34
			c-0.314,0-0.602,0.115-0.86,0.346c-0.259,0.229-0.446,0.527-0.56,0.896v3.1h-1.102v-2.93c0-0.494-0.078-0.853-0.234-1.075
			c-0.156-0.224-0.389-0.335-0.694-0.335s-0.593,0.113-0.854,0.34c-0.264,0.228-0.451,0.523-0.564,0.892v3.108h-1.102v-5.229h1
			v1.051c0.207-0.367,0.479-0.648,0.815-0.846c0.337-0.196,0.722-0.295,1.155-0.295c0.438,0,0.783,0.113,1.029,0.34
			s0.403,0.51,0.471,0.851c0.22-0.387,0.496-0.682,0.83-0.886c0.332-0.203,0.709-0.305,1.129-0.305c0.307,0,0.562,0.059,0.766,0.176
			c0.203,0.115,0.365,0.271,0.484,0.465c0.121,0.193,0.205,0.418,0.256,0.675c0.05,0.257,0.074,0.528,0.074,0.815V47.677
			L164.713,47.677z"/>
		<path fill="#C3CCD5" d="M168.334,47.776c-0.407,0-0.777-0.07-1.11-0.215c-0.333-0.143-0.618-0.338-0.854-0.584
			c-0.236-0.248-0.42-0.533-0.551-0.86c-0.13-0.326-0.195-0.673-0.195-1.039c0-0.367,0.065-0.716,0.195-1.045
			c0.131-0.33,0.312-0.621,0.551-0.871c0.236-0.25,0.521-0.445,0.854-0.59c0.333-0.144,0.706-0.216,1.12-0.216
			c0.406,0,0.775,0.074,1.105,0.222c0.329,0.147,0.61,0.342,0.844,0.584c0.233,0.244,0.412,0.526,0.535,0.851
			c0.123,0.323,0.186,0.661,0.186,1.016c0,0.08-0.004,0.154-0.01,0.226c-0.008,0.069-0.015,0.128-0.021,0.175h-4.19
			c0.021,0.233,0.076,0.443,0.166,0.631c0.09,0.187,0.205,0.349,0.35,0.484c0.145,0.137,0.307,0.242,0.49,0.314
			c0.184,0.074,0.375,0.109,0.574,0.109c0.146,0,0.291-0.019,0.436-0.056c0.145-0.036,0.275-0.09,0.395-0.159
			c0.121-0.07,0.228-0.154,0.32-0.255c0.094-0.101,0.167-0.211,0.221-0.33l0.939,0.271c-0.18,0.394-0.479,0.715-0.895,0.965
			C169.372,47.651,168.887,47.776,168.334,47.776z M169.924,44.667c-0.021-0.221-0.075-0.424-0.166-0.609
			c-0.09-0.187-0.204-0.346-0.344-0.477c-0.142-0.129-0.305-0.23-0.49-0.305c-0.188-0.072-0.385-0.109-0.59-0.109
			c-0.207,0-0.402,0.037-0.586,0.109c-0.184,0.074-0.345,0.176-0.484,0.305c-0.141,0.131-0.254,0.289-0.34,0.477
			c-0.088,0.187-0.141,0.39-0.16,0.609H169.924z"/>
		<path fill="#C3CCD5" d="M172.053,47.677v-7.1h4.73v0.99h-3.609v2.119h3.02v0.93h-3.02v3.061H172.053z"/>
		<path fill="#C3CCD5" d="M178.583,47.776c-0.252,0-0.487-0.041-0.703-0.125c-0.217-0.082-0.404-0.196-0.562-0.344
			c-0.155-0.146-0.28-0.32-0.37-0.521c-0.09-0.199-0.136-0.416-0.136-0.648c0-0.248,0.056-0.471,0.16-0.671
			c0.106-0.2,0.259-0.374,0.455-0.521s0.431-0.26,0.7-0.34c0.271-0.08,0.567-0.119,0.896-0.119c0.246,0,0.49,0.021,0.729,0.063
			c0.24,0.043,0.457,0.103,0.649,0.175v-0.359c0-0.387-0.11-0.688-0.33-0.904s-0.536-0.324-0.95-0.324
			c-0.279,0-0.555,0.051-0.824,0.154c-0.271,0.104-0.549,0.252-0.836,0.445l-0.34-0.701c0.674-0.453,1.373-0.68,2.101-0.68
			c0.721,0,1.28,0.184,1.681,0.551c0.399,0.365,0.602,0.893,0.602,1.58v1.89c0,0.126,0.021,0.216,0.068,0.271
			c0.047,0.054,0.127,0.082,0.239,0.09v0.939c-0.104,0.021-0.204,0.033-0.295,0.04c-0.09,0.007-0.171,0.011-0.244,0.011
			c-0.214-0.014-0.375-0.069-0.485-0.17c-0.109-0.102-0.179-0.233-0.205-0.399l-0.029-0.33c-0.232,0.307-0.521,0.541-0.865,0.705
			C179.345,47.694,178.977,47.776,178.583,47.776z M178.883,46.967c0.268,0,0.519-0.048,0.756-0.146
			c0.236-0.096,0.421-0.23,0.555-0.404c0.141-0.12,0.21-0.246,0.21-0.381v-0.689c-0.187-0.072-0.386-0.13-0.595-0.17
			c-0.211-0.039-0.416-0.061-0.615-0.061c-0.395,0-0.715,0.086-0.965,0.256s-0.375,0.395-0.375,0.675
			c0,0.261,0.096,0.479,0.289,0.655S178.583,46.967,178.883,46.967z"/>
		<path fill="#C3CCD5" d="M182.523,45.058c0-0.367,0.062-0.715,0.188-1.041s0.31-0.613,0.545-0.858
			c0.236-0.247,0.521-0.441,0.855-0.586c0.333-0.144,0.707-0.216,1.119-0.216c0.541,0,1.006,0.119,1.396,0.355
			c0.39,0.236,0.682,0.553,0.875,0.945l-1.069,0.34c-0.127-0.221-0.297-0.393-0.511-0.516c-0.215-0.123-0.45-0.186-0.711-0.186
			c-0.219,0-0.424,0.044-0.614,0.13c-0.188,0.087-0.354,0.209-0.494,0.365c-0.142,0.156-0.25,0.342-0.33,0.556
			c-0.08,0.213-0.12,0.449-0.12,0.709c0,0.254,0.042,0.489,0.125,0.705c0.083,0.217,0.196,0.405,0.34,0.565
			c0.145,0.159,0.311,0.284,0.5,0.375c0.19,0.09,0.393,0.135,0.604,0.135c0.134,0,0.268-0.019,0.399-0.055
			c0.133-0.037,0.256-0.089,0.365-0.155s0.207-0.145,0.29-0.229c0.083-0.088,0.146-0.182,0.185-0.281l1.08,0.32
			c-0.174,0.394-0.463,0.715-0.869,0.965s-0.887,0.375-1.44,0.375c-0.405,0-0.774-0.073-1.108-0.221
			c-0.334-0.146-0.619-0.345-0.855-0.595s-0.42-0.539-0.549-0.864C182.588,45.771,182.523,45.423,182.523,45.058z"/>
		<path fill="#C3CCD5" d="M190.822,47.776c-0.405,0-0.774-0.07-1.108-0.215c-0.334-0.143-0.618-0.338-0.855-0.584
			c-0.236-0.248-0.42-0.533-0.549-0.86c-0.131-0.326-0.195-0.673-0.195-1.039c0-0.367,0.064-0.716,0.195-1.045
			c0.129-0.33,0.312-0.621,0.549-0.871c0.237-0.25,0.521-0.445,0.855-0.59c0.334-0.144,0.707-0.216,1.119-0.216
			c0.408,0,0.774,0.074,1.104,0.222s0.61,0.342,0.847,0.584c0.231,0.244,0.41,0.526,0.534,0.851
			c0.123,0.323,0.185,0.661,0.185,1.016c0,0.08-0.002,0.154-0.01,0.226c-0.007,0.069-0.014,0.128-0.021,0.175h-4.188
			c0.02,0.233,0.073,0.443,0.163,0.631c0.091,0.187,0.207,0.349,0.351,0.484c0.145,0.137,0.308,0.242,0.49,0.314
			c0.184,0.074,0.375,0.109,0.575,0.109c0.146,0,0.291-0.019,0.435-0.056c0.145-0.036,0.274-0.09,0.396-0.159
			c0.119-0.07,0.227-0.154,0.32-0.255c0.093-0.101,0.166-0.211,0.219-0.33l0.939,0.271c-0.18,0.394-0.479,0.715-0.896,0.965
			C191.861,47.651,191.377,47.776,190.822,47.776z M192.413,44.667c-0.021-0.221-0.074-0.424-0.164-0.609
			c-0.09-0.187-0.205-0.346-0.347-0.477c-0.139-0.129-0.303-0.23-0.489-0.305c-0.187-0.072-0.384-0.109-0.591-0.109
			c-0.206,0-0.399,0.037-0.584,0.109c-0.184,0.074-0.346,0.176-0.485,0.305c-0.14,0.131-0.252,0.289-0.34,0.477
			c-0.086,0.187-0.14,0.39-0.16,0.609H192.413z"/>
		<path fill="#C3CCD5" d="M196.344,47.776c-0.215,0-0.43-0.016-0.646-0.049s-0.431-0.082-0.64-0.146
			c-0.211-0.062-0.41-0.139-0.601-0.229s-0.358-0.191-0.506-0.306l0.461-0.739c0.64,0.445,1.275,0.67,1.909,0.67
			c0.333,0,0.597-0.063,0.79-0.19c0.193-0.126,0.29-0.308,0.29-0.539c0-0.222-0.108-0.382-0.325-0.485
			c-0.217-0.103-0.562-0.212-1.035-0.324c-0.326-0.08-0.605-0.162-0.84-0.244c-0.232-0.084-0.424-0.178-0.57-0.281
			c-0.146-0.104-0.252-0.227-0.319-0.369c-0.065-0.145-0.101-0.314-0.101-0.516c0-0.266,0.055-0.504,0.16-0.709
			c0.106-0.207,0.252-0.383,0.437-0.525c0.183-0.145,0.399-0.252,0.649-0.325s0.519-0.11,0.806-0.11c0.379,0,0.745,0.062,1.1,0.181
			c0.354,0.121,0.671,0.284,0.949,0.489l-0.47,0.671c-0.5-0.373-1.033-0.56-1.6-0.56c-0.281,0-0.518,0.059-0.711,0.174
			c-0.193,0.117-0.289,0.303-0.289,0.556c0,0.106,0.021,0.196,0.06,0.271c0.04,0.073,0.104,0.137,0.194,0.19
			c0.09,0.053,0.209,0.103,0.355,0.146s0.326,0.092,0.539,0.145c0.359,0.088,0.67,0.174,0.931,0.261s0.476,0.188,0.646,0.306
			c0.171,0.116,0.296,0.252,0.375,0.41c0.08,0.156,0.119,0.344,0.119,0.564c0,0.246-0.049,0.47-0.149,0.67
			c-0.101,0.199-0.241,0.369-0.424,0.51c-0.185,0.141-0.407,0.248-0.67,0.324C196.956,47.739,196.663,47.776,196.344,47.776z"/>
	</g>
</g>
</svg>
